<?xml version="1.0" standalone="no"?>
<!DOCTYPE svg PUBLIC "-//W3C//DTD SVG 20010904//EN"
 "http://www.w3.org/TR/2001/REC-SVG-20010904/DTD/svg10.dtd">
<svg version="1.0" xmlns="http://www.w3.org/2000/svg"
 width="576.000000pt" height="576.000000pt" viewBox="0 0 576.000000 576.000000"
 preserveAspectRatio="xMidYMid meet">

<g transform="translate(0.000000,576.000000) scale(0.100000,-0.100000)"
fill="#000000" stroke="none">
<path d="M2695 4770 c-136 -19 -257 -59 -380 -124 -95 -50 -105 -57 -212 -160
-276 -264 -415 -687 -449 -1362 l-7 -132 -36 -17 c-59 -28 -142 -55 -172 -55
-41 0 -41 -12 2 -45 21 -16 38 -33 39 -37 0 -3 -23 -9 -52 -13 l-52 -7 35 -30
c110 -93 315 -210 455 -260 60 -21 72 -30 129 -99 168 -202 387 -337 650 -400
131 -32 352 -32 490 -1 156 36 310 104 430 190 68 49 188 165 240 232 37 48
51 58 101 74 123 38 356 170 459 259 l40 35 -49 7 -50 8 45 38 c31 26 40 39
29 42 -8 2 -37 10 -65 16 -27 6 -80 26 -118 44 l-67 32 -5 122 c-20 542 -110
914 -287 1185 -123 189 -288 323 -490 398 -127 47 -216 61 -408 65 -102 2
-212 0 -245 -5z m505 -615 c167 -37 301 -107 413 -213 173 -165 246 -346 303
-745 l6 -47 -73 39 c-97 51 -185 78 -325 96 -178 23 -329 -5 -451 -85 -88 -58
-147 -140 -169 -235 l-7 -30 -8 38 c-40 177 -226 301 -470 314 -118 6 -235 -7
-332 -38 -72 -24 -203 -87 -219 -106 -32 -39 -31 -2 4 192 87 486 349 759 798
835 89 14 442 5 530 -15z m-274 -1350 c40 -112 183 -217 344 -251 96 -21 294
-13 434 16 54 11 100 20 103 20 10 0 -38 -58 -98 -120 -430 -443 -1138 -459
-1588 -36 -63 61 -135 145 -129 152 3 2 34 -2 69 -10 121 -29 335 -47 408 -36
133 21 236 66 312 137 51 48 109 148 110 192 0 23 1 24 9 6 4 -11 16 -42 26
-70z"/>
<path d="M2321 3908 c-18 -6 -49 -26 -67 -43 -27 -26 -34 -40 -34 -71 0 -22 9
-54 20 -71 l19 -33 -64 32 c-35 18 -66 30 -68 27 -3 -2 -1 -35 4 -74 31 -250
190 -368 472 -351 54 3 140 15 190 26 l92 20 95 -21 c69 -16 131 -22 225 -23
113 -1 139 2 200 23 91 31 171 108 203 193 20 54 45 197 35 207 -2 3 -28 -7
-59 -22 -65 -32 -73 -33 -50 -8 26 28 31 83 11 120 -24 48 -110 86 -176 78
-140 -17 -269 -129 -269 -233 0 -41 2 -43 45 -59 34 -14 65 -16 131 -13 l87 5
-239 -120 -239 -119 -240 119 -239 120 99 -4 c123 -5 168 11 173 64 4 43 -41
125 -89 164 -80 63 -194 92 -268 67z"/>
</g>
</svg>